<?xml version="1.0" encoding="UTF-8"?>
<svg id="Warstwa_1" xmlns="http://www.w3.org/2000/svg" viewBox="0 0 38.59 40">
  <defs>
    <style>
      .cls-1 {
        fill: #ee85b2;
      }

      .cls-2 {
        fill: #fff;
      }
    </style>
  </defs>
  <path class="cls-1" d="M38.59,26.1c-.86,1.12-.8,2.77-2.1,3.64-.12.08-.16.42-.11.6.33,2.58-3.82,1.53-4.7.13-1.8-2.14-4.02-.26-4.89,1.7-.8,1.38-1.71-1.22-3.2.34-.85.64-2.44-.54-2.46,1.05-.33,5.22,6.34,1.02,8.93,3.65,7.22,4.5-36.54,2.86-26.09-.09,2.72.52,5.46,1.74,8.18.62,1.56-1.17,5.09-.04,5.41-2.31.06-.9-.81-.9-1.41-.93-2.92.38-2.66-4.06-5.52-3.23-.89.15-1.5.66-1.46,1.68-.51,2.8-5.8.24-6.77-1.13-1.33-2.07.53-3.58-2.35-5.29-.51-3.78,2.99-3.55,2.8-6.07-.08-.72.2-1.13.97-.97,2.14.1-1.44-3.78,1.46-4.06,1.79-.36-.04-2.54,1.16-3.4,2.52-1.6.55-5.18,3.16-6.49.87-.93,1.01-2.53,2.71-2.25,2.52.11.98-2.67,4.38-1.35.54.12,1.08.12,1.19-.52.17-1.83,2.26.49,2.37-1.31,2.46-.72,3.16,2.8,5.39,2.52,2.39-.55,2.36,3.19,4.2,3.51,3.28-.15,4.31,5.66,1.69,7.41-.46.35-.29.77-.03,1.14.37.53.92.73,1.55.85,2.96.23,1.12,3.21,2.81,4.46.55.37,1.16.88,1,1.54-.8,2.23,1.46,2.93,1.73,4.58Z"/>
  <path class="cls-2" d="M28.61,23.48c0,1.2-.97,2.17-2.17,2.17s-2.17-.97-2.17-2.17c0-.23.03-.44.1-.65h0l-1.2-.69-3.76,2.19v1.38c.96.22,1.68,1.09,1.68,2.12,0,1.2-.97,2.17-2.17,2.17s-2.17-.97-2.17-2.17c0-1.03.72-1.89,1.68-2.12v-1.26l-3.91-2.28-1.24.76c.04.17.07.35.07.54,0,1.2-.97,2.17-2.17,2.17s-2.17-.97-2.17-2.17.97-2.17,2.17-2.17c.66,0,1.25.29,1.65.75l1.12-.69v-4.57l-1.25-.72h0c-.39.38-.93.62-1.52.62-1.2,0-2.17-.97-2.17-2.17s.97-2.17,2.17-2.17,2.17.97,2.17,2.17c0,.25-.04.49-.12.72l1.16.67,4.04-2.35v-1.24c-1-.19-1.75-1.08-1.75-2.13,0-1.2.97-2.17,2.17-2.17s2.17.97,2.17,2.17c0,1-.68,1.85-1.6,2.1v1.4l3.79,2.21,1.19-.66c-.08-.22-.12-.46-.12-.7,0-1.2.97-2.17,2.17-2.17s2.17.97,2.17,2.17-.97,2.17-2.17,2.17c-.6,0-1.14-.24-1.53-.63h0l-1.24.69v4.53l1.2.69c.4-.41.95-.67,1.57-.67,1.2,0,2.17.97,2.17,2.17h0Z"/>
</svg>