<?xml version="1.0" encoding="UTF-8"?>
<svg id="Warstwa_1" xmlns="http://www.w3.org/2000/svg" viewBox="0 0 40 40">
  <defs>
    <style>
      .cls-1 {
        fill: #4cc9f0;
      }

      .cls-2 {
        fill: #fff;
      }

      .cls-3 {
        fill: #7de1ff;
      }
    </style>
  </defs>
  <path class="cls-1" d="M39,26.36c0,.42-.12.36-.46.45v.46c0,.42-.11.37-.45.46v.91c0,.32-1.04,1.27-1.37,1.36v1.37c0,.35-.11.45-.46.45h-.45c-.09.34-.04.46-.46.46h-1.67c-.05-.19-2.55-2.28-2.74-2.28h-.15c-.56,0-.35.46-.91.46h-.76c-.01.38-.52,1.34-.73,1.7-.06.11-.49.36-.88.57-.32.17-.62.31-.67.31h-.15c-.56,0-.35-.46-.91-.46h-.76c-.37,0-.45.25-.76.46-.73,0-2.44-.3-2.44.45l.09,2.2.83.99h5.32c.1,0,3.19,1.51,3.19,1.82v.46h-5.02c-.42,0-.36-.12-.45-.46h-4.41c-.53,0-.22.27-.89.45l-.18-.45-.76.46c-.09-.34-.03-.46-.45-.46h-5.93c-.42,0-.37.12-.46.46H3.28v-.46c0-.36.55-.91.91-.91h3.04c.56,0,.35.46.91.46h.61c.56,0,.35-.46.91-.46h2.59c.09-.34.03-.45.45-.45h3.17s.18-.46.18-.46h.91c.3-.2,1.21-.93,1.21-1.36,0-.3-.61-.92-.91-.92h-.45c-.42,0-.37.12-.46.46h-.43s-.23-.35-.23-.35l-1.16-.56v-.46c0-.48-.7-.62-.91-1.21h-3.65v.45c0,.37-1,1.37-1.37,1.37h-2.13c-.12,0-3.45-2.75-3.65-3.04v-2.12c-.32-.48-1.82-1.84-1.82-2.58v-1.37c.34-.09.46-.03.46-.46v-.45s.08-.02.12-.03h.01c.24-.06.32-.07.32-.43l.08-.37.1-.12.73-.87h.46c.35,0,.46-.11.46-.46l.07-1.29.38-.53h.91c.35,0,.46-.1.46-.46v-.45c0-.42-.12-.37-.46-.46v-1.82c.39-.1,1.68-1.31,1.68-1.67l.08-1.73,1.44-1.46v-1.21c.18-.27.3-.27.3-.61v-.45c.34-.09.46-.04.46-.46v-1.82c.42-.11,1.82-1.37,1.82-1.82v-.43s.46-.18.46-.18c.02-1.14.86-1.13,1.67-1.67l1.24.03,1.04-.94,3.15-.03.65-.88h1.37c.42,0,.36-.12.45-.46h1.37c.66,0,1.6,1.79,3.05,1.82l.14.46h1.37c.28,0,2.04,1.31,2.28,1.67l-.04.79,1.1,1.03h1.22c.31.21,1.22.93,1.22,1.37v5.46c-.32.09-.92.57-.92.91h0c0,.44.91,1.17,1.22,1.37l.8-.03,1.63,1.7.04,1.64.23.32,1.56,2.14v2.13c.32.48,1.82,1.84,1.82,2.58Z"/>
  <path class="cls-3" d="M35.62,19.51c-.52-.11-1.08-.25-1.7-.4-1.42-.35-2.55-.62-3.48-.83-1.99-.44-3.13-.59-4.48-.63-.24,0-.49-.02-.75-.02-.17,0-.34,0-.52.01-1.18,0-2.42.14-3.71.38-.41.07-.83.15-1.25.25-.59.13-1.19.28-1.8.46-.47.13-1.13.35-1.95.63-.39.13-.8.28-1.25.44-.76.27-1.61.58-2.5.92-.62.23-1.19.44-1.71.62-2.58.91-4.18,1.31-6.26,1.59-.77.11-1.48.17-2.17.2l.73-.87h.46c.35,0,.46-.11.46-.46l.07-1.29.38-.53h.91c.35,0,.46-.1.46-.46v-.45c0-.42-.12-.37-.46-.46v-1.82c.39-.1,1.68-1.31,1.68-1.67l.08-1.73,1.44-1.46v-1.21c.18-.27.3-.27.3-.61v-.45c.34-.09.46-.04.46-.46v-1.82c.42-.11,1.82-1.37,1.82-1.82v-.43s.46-.18.46-.18c.02-1.14.86-1.13,1.67-1.67l1.24.03,1.04-.94,3.15-.03.65-.88h1.37c.42,0,.36-.12.45-.46h1.37c.66,0,1.6,1.79,3.05,1.82l.14.46h1.37c.28,0,2.04,1.31,2.28,1.67l-.04.79,1.1,1.03h1.22c.31.21,1.22.93,1.22,1.37v5.46c-.32.09-.92.57-.92.91h0c0,.44.91,1.17,1.22,1.37l.8-.03,1.63,1.7.04,1.64.23.32Z"/>
  <path class="cls-2" d="M14.71,19c0-1.24.1-2.45.28-3.6h-4.09c-.43,1.12-.66,2.33-.66,3.6,0,.81.1,1.59.28,2.34.09.39.2.77.34,1.14h4.11c-.13-.86-.22-1.76-.24-2.68-.02-.26-.02-.53-.02-.8ZM16.27,15.4c-.2,1.14-.3,2.35-.3,3.6,0,.12,0,.24.01.36.01,1.08.11,2.13.27,3.12h3.48v-7.08h-3.46ZM23.33,11.67c-.66-1.42-1.49-2.36-2.35-2.67v5.14h3.2c-.22-.9-.51-1.73-.85-2.47ZM17.38,11.67c-.35.74-.63,1.57-.85,2.47h3.2v-5.14c-.86.31-1.69,1.25-2.35,2.67ZM16.5,23.74c.22.95.52,1.82.88,2.59.66,1.42,1.49,2.35,2.35,2.67v-5.26h-3.23ZM20.98,23.74v5.26c.86-.32,1.69-1.25,2.35-2.67.36-.77.65-1.64.88-2.59h-3.23ZM24.69,17.64c-.04-.77-.12-1.52-.25-2.24h-3.46v7.08h3.48c.18-1.1.28-2.27.28-3.48,0-.46-.01-.91-.05-1.36ZM30.44,18.28c-.07-1.01-.29-1.97-.63-2.88h-4.09c.11.73.2,1.48.24,2.25.03.44.04.9.04,1.35,0,1.2-.09,2.37-.26,3.48h4.11c.4-1.09.62-2.26.62-3.48,0-.24,0-.48-.03-.72ZM23.39,9.35c.39.5.76,1.09,1.08,1.79.42.89.75,1.9,1,3h3.76c-1.25-2.26-3.33-4-5.84-4.79ZM11.48,14.14h3.76c.25-1.1.58-2.11,1-3,.32-.7.68-1.29,1.08-1.79-2.51.79-4.59,2.53-5.84,4.79ZM16.24,26.86c-.43-.92-.78-1.98-1.03-3.12h-3.79c1.24,2.32,3.35,4.1,5.9,4.91-.4-.5-.76-1.1-1.08-1.79ZM25.5,23.74c-.25,1.14-.6,2.2-1.03,3.12-.32.69-.69,1.29-1.08,1.79,2.55-.81,4.66-2.59,5.9-4.91h-3.79Z"/>
</svg>